<mxfile host="app.diagrams.net" modified="2023-07-11T01:09:12.422Z" agent="Mozilla/5.0 (Windows NT 10.0; Win64; x64) AppleWebKit/537.36 (KHTML, like Gecko) Chrome/114.0.0.0 Safari/537.36" version="21.6.1" etag="UE752fBk2qb6xXxyGD0Y" type="github">
  <diagram name="Page-1" id="Qa0Vx28TLhEZjbD8yMkH">
    <mxGraphModel>
      <root>
        <mxCell id="0" />
        <mxCell id="1" parent="0" />
      </root>
    </mxGraphModel>
  </diagram>
</mxfile>
